<svg xmlns="http://www.w3.org/2000/svg" viewBox="0 0 1381 1381"><g id="e5dc4746-69ca-44c8-90b9-8751d486430f" data-name="Calque 2"><rect x="0.5" y="0.5" width="690" height="440" fill="#c7b299" stroke="#fff" stroke-miterlimit="10"/><rect x="0.5" y="438.5" width="690" height="251" fill="#583140" stroke="#583140" stroke-miterlimit="10"/><rect x="42.5" y="141.5" width="204" height="140" fill="#86576b" stroke="#86576b" stroke-miterlimit="10"/><polygon points="246 281.5 42.5 142 246 142 246 281.5" fill="#764b5c"/><rect x="194.5" y="141.5" width="52" height="140" fill="#c0ada7" stroke="#c0ada7" stroke-miterlimit="10"/><rect x="198.5" y="202.5" width="10" height="19" fill="#728188" stroke="#728188" stroke-miterlimit="10"/><path d="M152.19,254v45c0,1.66-2,3-4.41,3h-2.95c-2.43,0-4.64-1.34-4.64-3V254c0-1.66,2.21-3,4.64-3h2.95C150.21,251,152.19,252.34,152.19,254Z" transform="translate(0.31 0.5)" fill="#8197a2" stroke="#8197a2" stroke-miterlimit="10"/><rect x="48.5" y="321.5" width="194" height="101" fill="#c0ada7" stroke="#c0ada7" stroke-miterlimit="10"/><rect x="48.5" y="321.5" width="97" height="101" fill="#ab9790" stroke="#ab9790" stroke-miterlimit="10"/><path d="M255.19,308.5a12.5,12.5,0,0,1-12.5,12.5h-193a12.5,12.5,0,1,1,0-25h193A12.5,12.5,0,0,1,255.19,308.5Z" transform="translate(0.31 0.5)" fill="#86576b" stroke="#86576b" stroke-miterlimit="10"/><path d="M146.19,296v25H49.69a12.5,12.5,0,1,1,0-25Z" transform="translate(0.31 0.5)" fill="#764b5c" stroke="#764b5c" stroke-miterlimit="10"/><rect x="49.5" y="422.5" width="14" height="18" fill="#7f7f7f" stroke="#7e7e7e" stroke-miterlimit="10"/><rect x="227.5" y="422.5" width="14" height="18" fill="#909090" stroke="#909090" stroke-miterlimit="10"/><rect x="135.5" y="360.5" width="8" height="18" fill="#7f7f7f" stroke="#7e7e7e" stroke-miterlimit="10"/><rect x="149.5" y="360.5" width="8" height="18" fill="#909090" stroke="#909090" stroke-miterlimit="10"/><rect x="321.5" y="140.5" width="158" height="130" fill="#728188" stroke="#728188" stroke-miterlimit="10"/><rect x="329.5" y="149.5" width="142" height="112" fill="#b6748e" stroke="#b6748e" stroke-miterlimit="10"/><polygon points="329.5 261.5 329.5 149.5 471.5 149.5 329.5 261.5" fill="#f19cbe" stroke="#f19cbe" stroke-miterlimit="10"/><rect x="321.5" y="257.5" width="158" height="13" fill="#c0ada7" stroke="#c0ada7" stroke-miterlimit="10"/><path d="M390,226s-7-15.25,0-35.58c1.17,8.33,3.17,21,3.17,22.21s-.16-29.57.67-31.9,6.16,28.8,6.33,30.13,1.67-23.09,2.5-26.09C405,183.1,413,203,406.36,226Z" transform="translate(0.31 0.5)" fill="#61b522" stroke="#61b522" stroke-miterlimit="10"/><polygon points="409.67 262.5 389.67 262.5 383.5 223.5 415.5 223.5 409.67 262.5" fill="#764b5c" stroke="#764b5c" stroke-miterlimit="10"/><path d="M397.19,286h32s5.51.63,5.5,5.75c0,4.26-4.5,6.25-4.5,6.25l-11.25,44.75s9,18.5,3.75,32.75-13.25,22-13.25,22-3,18.38-.75,24.63S417,438,417,438H396.19Z" transform="translate(0.31 0.5)" fill="#86576b" stroke="#86576b" stroke-miterlimit="10"/><path d="M399.69,286h-32s-5.51.63-5.5,5.75c0,4.26,4.5,6.25,4.5,6.25l11.25,44.75s-9,18.5-3.75,32.75,13.25,22,13.25,22,3,18.38.75,24.63S379.94,438,379.94,438h20.75Z" transform="translate(0.31 0.5)" fill="#764b5c" stroke="#764b5c" stroke-miterlimit="10"/><polygon points="547.5 261.5 547.5 211.5 571.5 211.5 571.5 205.5 547.5 205.5 547.5 155.5 571.5 155.5 571.5 142.5 533.5 142.5 533.5 422.5 571.5 422.5 571.5 261.5 547.5 261.5" fill="#ab9790" stroke="#ab9790" stroke-miterlimit="10"/><polygon points="595.5 261.5 595.5 211.5 571.5 211.5 571.5 205.5 595.5 205.5 595.5 155.5 571.5 155.5 571.5 142.5 609.5 142.5 609.5 422.5 571.5 422.5 571.5 261.5 595.5 261.5" fill="#c0ada7" stroke="#c0ada7" stroke-miterlimit="10"/><rect x="595.5" y="422.5" width="14" height="18" fill="#7f7f7f" stroke="#7f7f7f" stroke-miterlimit="10"/><rect x="533.5" y="422.5" width="14" height="18" fill="#7f7f7f" stroke="#7f7f7f" stroke-miterlimit="10"/><rect x="547.5" y="195.5" width="48" height="8" rx="3" fill="#61b522" stroke="#61b522" stroke-miterlimit="10"/><rect x="547.5" y="186.5" width="48" height="8" rx="3" fill="#61b522" stroke="#61b522" stroke-miterlimit="10"/><rect x="547.5" y="251.5" width="48" height="8" rx="3" fill="#61b522" stroke="#61b522" stroke-miterlimit="10"/><rect x="547.5" y="242.5" width="48" height="8" rx="3" fill="#61b522" stroke="#61b522" stroke-miterlimit="10"/><rect x="547.5" y="231.5" width="48" height="8" rx="3" fill="#86576b" stroke="#86576b" stroke-miterlimit="10"/><rect x="113.5" y="517.5" width="298" height="94" rx="20" fill="#86576b" stroke="#86576b" stroke-miterlimit="10"/><path d="M113.19,591V537a20,20,0,0,1,20-20h258a20,20,0,0,1,20,20S152.19,581.17,113.19,591Z" transform="translate(0.31 0.5)" fill="#764b5c" stroke="#764b5c" stroke-miterlimit="10"/><rect x="97" y="506" width="329" height="25" rx="10" fill="#86576b"/><rect x="97.5" y="505.5" width="329" height="25" rx="10" fill="none" stroke="#86576b" stroke-miterlimit="10"/><path d="M117.19,510l1.25-147.75s.79-19.53,6.63-28.45c9.74-14.87,30.05-27.37,69.12,11.7,0,0,25.95.89,26.7,25.33.17,5.33-1.51,9.43-5.51,10.93-22.48,7.21-38.13,2.09-46.79-1.28-6.4-2.48-6.63-9.15-6.63-9.15S159.19,353,180.69,346.5c0,0-33.24-31.78-48.72-2.58-4.11,7.75-2.9,24.08-3.28,29.83,0,40.5,1.5,136.25,1.5,136.25Z" transform="translate(0.31 0.5)" fill="#86576b" stroke="#86576b" stroke-miterlimit="10"/><path d="M182,346.67s14.66-6.17,18.14,7.39c2,7.71,5.52,18.94,5.52,18.94s2.67,9.17-5.5,11c-7.92,1.78-26.38-1.59-29-2.55s-8.34-4.78-8.17-9.95S161.19,355,182,346.67Z" transform="translate(0.31 0.5)" fill="#764b5c" stroke="#764b5c" stroke-miterlimit="10"/><polygon points="447 572.5 426.5 623.5 667 623.5 636 572.5 447 572.5" fill="#61b522" stroke="#61b522" stroke-miterlimit="10"/><path d="M432.19,349.5a6.5,6.5,0,0,1-6.5,6.5h-53a6.5,6.5,0,1,1,0-13h53A6.5,6.5,0,0,1,432.19,349.5Z" transform="translate(0.31 0.5)" fill="#fa6a3e" stroke="#fa6a3e" stroke-miterlimit="10"/><path d="M400.19,343v13h-27.5a6.5,6.5,0,1,1,0-13Z" transform="translate(0.31 0.5)" fill="#fc5521" stroke="#fc5521" stroke-miterlimit="10"/></g><g id="a1427f22-45bd-42b5-9881-dbdf2473306e" data-name="Calque 3"><rect x="0.5" y="689.5" width="690" height="381" fill="#e6e6e6" stroke="#f8d59a" stroke-miterlimit="10"/><rect x="0.5" y="1070.5" width="690" height="310" fill="#f9a51f" stroke="#f9a51f" stroke-miterlimit="10"/><rect x="172.5" y="746.5" width="195" height="330" fill="#a06539" stroke="#a06539" stroke-miterlimit="10"/><rect x="180.5" y="754.5" width="178" height="315" fill="#86e0eb" stroke="#86e0eb" stroke-miterlimit="10"/><polygon points="358.5 1063.67 270 754.5 358.5 754.5 358.5 1063.67" fill="#35c9df" stroke="#35c9df" stroke-miterlimit="10"/><rect x="331.5" y="904.5" width="36" height="10" fill="#a06539" stroke="#a06539" stroke-miterlimit="10"/><path d="M313.42,1076H172.19V749h194.5s-1,104.18-64.33,164.5-29.15,104.18-26.13,114.15S313.42,1076,313.42,1076Z" transform="translate(0.31 0.5)" fill="#e45f1e" stroke="#e45f1e" stroke-miterlimit="10"/><polygon points="169.5 933 164.5 956.5 254 977.5 265.5 1052 276.5 1049.5 270.25 1012 286.5 1052 296.5 1044.5 270.25 981.5 276.5 982 281.5 959.5 169.5 933" fill="#fac263" stroke="#fac263" stroke-miterlimit="10"/><path d="M143.19,996H140.1a9.69,9.69,0,0,0,2.09-6V869a10.2,10.2,0,0,0-10.39-10H59.08c-5.74,0-10.89,4.48-10.89,10V990a9.3,9.3,0,0,0,2.28,6H40.19v94h9v-31h94v31h9V996Zm0,39h-94v-5h94Z" transform="translate(0.31 0.5)" fill="#8f5225" stroke="#8f5225" stroke-miterlimit="10"/><path d="M142.19,1038v-2h-92v18h92v-2h-2v-14Zm-8,0v14h-2v-14Zm-4,0v14h-2v-14Zm-4,0v14h-2v-14Zm-4,0v14h-2v-14Zm-4,0v14h-2v-14Zm-4,0v14h-2v-14Zm-4,0v14h-2v-14Zm-4,0v14h-2v-14Zm-4,0v14h-2v-14Zm-4,0v14h-2v-14Zm-4,0v14h-2v-14Zm-4,0v14h-2v-14Zm-4,0v14h-2v-14Zm-4,0v14h-2v-14Zm-4,0v14h-2v-14Zm-4,0v14h-2v-14Zm-4,0v14h-2v-14Zm-4,0v14h-2v-14Zm-4,0v14h-2v-14Zm-4,0v14h-2v-14Zm-6,0h2v14h-2Zm86,14h-2v-14h2Z" transform="translate(0.31 0.5)" fill="#a06539" stroke="#a06539" stroke-miterlimit="10"/><rect x="51" y="863" width="88" height="136" rx="10" fill="#35c9df"/><rect x="51.5" y="862.5" width="88" height="136" rx="10" fill="none" stroke="#35c9df" stroke-miterlimit="10"/><path d="M51.19,986l88-116.5a13,13,0,0,0-8.75-7.5c-6.5-1.5-71.25,0-71.25,0s-8,2-8,10.5Z" transform="translate(0.31 0.5)" fill="#00bcd7" stroke="#00bcd7" stroke-miterlimit="10"/><path d="M134.57,1004H57.81a10.79,10.79,0,0,0-10.62,10.94v1.12A10.79,10.79,0,0,0,57.81,1027h76.76a10.78,10.78,0,0,0,10.62-10.94v-1.12A10.78,10.78,0,0,0,134.57,1004Zm-29.38,13h-20v-3h20Z" transform="translate(0.31 0.5)" fill="#a06539" stroke="#a06539" stroke-miterlimit="10"/><rect x="455.5" y="776.5" width="193" height="284" fill="#97592b" stroke="#8f5225" stroke-miterlimit="10"/><rect x="455.5" y="776.5" width="96" height="284" fill="#8f5225" stroke="#8f5225" stroke-miterlimit="10"/><rect x="455.5" y="1060.5" width="14" height="19" fill="#8f5225" stroke="#8f5225" stroke-miterlimit="10"/><rect x="634.5" y="1060.5" width="14" height="19" fill="#97592b" stroke="#8f5225" stroke-miterlimit="10"/><path d="M465.19,1012v34h173v-34Zm100,21h-27v-6h27Z" transform="translate(0.31 0.5)" fill="#a06539" stroke="#a06539" stroke-miterlimit="10"/><path d="M538.19,793h-63a10,10,0,0,0-10,10V993a10,10,0,0,0,10,10h63a10,10,0,0,0,10-10V803A10,10,0,0,0,538.19,793Zm1,103h-28v-5h28Z" transform="translate(0.31 0.5)" fill="#a06539" stroke="#a06539" stroke-miterlimit="10"/><path d="M628.19,793h-63a10,10,0,0,0-10,10V993a10,10,0,0,0,10,10h63a10,10,0,0,0,10-10V803A10,10,0,0,0,628.19,793Zm-39,103h-28v-5h28Z" transform="translate(0.31 0.5)" fill="#a06539" stroke="#a06539" stroke-miterlimit="10"/><rect x="455.5" y="740.5" width="93" height="36" fill="#fd6d24" stroke="#fd6d24" stroke-miterlimit="10"/><rect x="455.5" y="740.5" width="48" height="36" fill="#e45f1e" stroke="#e45f1e" stroke-miterlimit="10"/><path d="M516.19,757.5a5.5,5.5,0,0,1-5.5,5.5h-15a5.5,5.5,0,0,1-5.5-5.5h0a5.5,5.5,0,0,1,5.5-5.5h15a5.5,5.5,0,0,1,5.5,5.5Z" transform="translate(0.31 0.5)" fill="#25989f" stroke="#25989f" stroke-miterlimit="10"/><rect x="555.5" y="740.5" width="93" height="36" fill="#fd6d24" stroke="#fd6d24" stroke-miterlimit="10"/><rect x="555.5" y="740.5" width="48" height="36" fill="#e45f1e" stroke="#e45f1e" stroke-miterlimit="10"/><path d="M616.19,757.5a5.5,5.5,0,0,1-5.5,5.5h-15a5.5,5.5,0,0,1-5.5-5.5h0a5.5,5.5,0,0,1,5.5-5.5h15a5.5,5.5,0,0,1,5.5,5.5Z" transform="translate(0.31 0.5)" fill="#25989f" stroke="#25989f" stroke-miterlimit="10"/><path d="M103.19,1122.43v54.25a32.58,32.58,0,0,1-8.83-1.68,17.67,17.67,0,0,1-10.17-12c-5-17.5,5-40.5,5-40.5S95.87,1122.44,103.19,1122.43Z" transform="translate(0.31 0.5)" fill="#7f9aab" stroke="#7f9aab" stroke-miterlimit="10"/><path d="M127.19,1125v12.5s-2.25,1.83-2.25,6.33a10.24,10.24,0,0,0,2.25,6.84s1.75,1.75,3.75-.5,2.09-6.84,2.09-6.84a8.86,8.86,0,0,0-2.42-5.66c.08-2.17,0-12.67,0-12.67Z" transform="translate(0.31 0.5)" fill="#85b7c2" stroke="#85b7c2" stroke-miterlimit="10"/><path d="M131.11,1143.92c0,2.44-.58,4.41-1.29,4.41s-1.29-2-1.29-4.41.57-4.42,1.29-4.42S131.11,1141.48,131.11,1143.92Z" transform="translate(0.31 0.5)" fill="#fff" stroke="#fff" stroke-miterlimit="10"/><polygon points="156.5 1174.5 50.5 1174.5 50.5 1284.5 51.5 1284.5 51.5 1293.5 60.5 1293.5 60.5 1284.5 146.5 1284.5 146.5 1293.5 155.5 1293.5 155.5 1284.5 156.5 1284.5 156.5 1174.5" fill="#8f5225" stroke="#8f5225" stroke-miterlimit="10"/><rect x="57.5" y="1185.5" width="92" height="24" rx="10" fill="#a06539" stroke="#a06539" stroke-miterlimit="10"/><path d="M103.19,1185v24h-36a10,10,0,0,1-10-10v-4a10,10,0,0,1,10-10Z" transform="translate(0.31 0.5)" fill="#8c5831" stroke="#8c5831" stroke-miterlimit="10"/><rect x="95.5" y="1195.5" width="16" height="4" fill="#8f5225" stroke="#8f5225" stroke-miterlimit="10"/><rect x="57.5" y="1217.5" width="92" height="24" rx="10" fill="#a06539" stroke="#a06539" stroke-miterlimit="10"/><path d="M103.19,1217v24h-36a10,10,0,0,1-10-10v-4a10,10,0,0,1,10-10Z" transform="translate(0.31 0.5)" fill="#8c5831" stroke="#8c5831" stroke-miterlimit="10"/><rect x="95.5" y="1227.5" width="16" height="4" fill="#8f5225" stroke="#8f5225" stroke-miterlimit="10"/><rect x="57.5" y="1249.5" width="92" height="24" rx="10" fill="#a06539" stroke="#a06539" stroke-miterlimit="10"/><path d="M103.19,1249v24h-36a10,10,0,0,1-10-10v-4a10,10,0,0,1,10-10Z" transform="translate(0.31 0.5)" fill="#8c5831" stroke="#8c5831" stroke-miterlimit="10"/><rect x="95.5" y="1259.5" width="16" height="4" fill="#8f5225" stroke="#8f5225" stroke-miterlimit="10"/><path d="M585.19,1122.43v54.25a32.58,32.58,0,0,1-8.83-1.68,17.67,17.67,0,0,1-10.17-12c-5-17.5,5-40.5,5-40.5S577.87,1122.44,585.19,1122.43Z" transform="translate(0.31 0.5)" fill="#7f9aab" stroke="#7f9aab" stroke-miterlimit="10"/><path d="M596.86,1137s4.83,9.58,0,23.25c0,0,1.83,4.58,4.83,1.33,3.42-14.83,0-25.5,0-25.5S598.36,1132.83,596.86,1137Z" transform="translate(0.31 0.5)" fill="#fff" stroke="#fff" stroke-miterlimit="10"/><path d="M609.19,1125v12.5s-2.25,1.83-2.25,6.33a10.24,10.24,0,0,0,2.25,6.84s1.75,1.75,3.75-.5,2.09-6.84,2.09-6.84a8.86,8.86,0,0,0-2.42-5.66c.08-2.17,0-12.67,0-12.67Z" transform="translate(0.31 0.5)" fill="#85b7c2" stroke="#85b7c2" stroke-miterlimit="10"/><path d="M613.11,1143.92c0,2.44-.58,4.41-1.29,4.41s-1.29-2-1.29-4.41.57-4.42,1.29-4.42S613.11,1141.48,613.11,1143.92Z" transform="translate(0.31 0.5)" fill="#fff" stroke="#fff" stroke-miterlimit="10"/><rect x="539.5" y="1185.5" width="92" height="24" rx="10" fill="#a06539" stroke="#a06539" stroke-miterlimit="10"/><path d="M585.19,1185v24h-36a10,10,0,0,1-10-10v-4a10,10,0,0,1,10-10Z" transform="translate(0.31 0.5)" fill="#8c5831" stroke="#8c5831" stroke-miterlimit="10"/><rect x="577.5" y="1195.5" width="16" height="4" fill="#8f5225" stroke="#8f5225" stroke-miterlimit="10"/><rect x="539.5" y="1217.5" width="92" height="24" rx="10" fill="#a06539" stroke="#a06539" stroke-miterlimit="10"/><path d="M585.19,1217v24h-36a10,10,0,0,1-10-10v-4a10,10,0,0,1,10-10Z" transform="translate(0.31 0.5)" fill="#8c5831" stroke="#8c5831" stroke-miterlimit="10"/><rect x="577.5" y="1227.5" width="16" height="4" fill="#8f5225" stroke="#8f5225" stroke-miterlimit="10"/><rect x="539.5" y="1249.5" width="92" height="24" rx="10" fill="#a06539" stroke="#a06539" stroke-miterlimit="10"/><path d="M585.19,1249v24h-36a10,10,0,0,1-10-10v-4a10,10,0,0,1,10-10Z" transform="translate(0.31 0.5)" fill="#8c5831" stroke="#8c5831" stroke-miterlimit="10"/><rect x="577.5" y="1259.5" width="16" height="4" fill="#8f5225" stroke="#8f5225" stroke-miterlimit="10"/><rect x="220.5" y="1119.5" width="239" height="80" fill="#a06539" stroke="#a06539" stroke-miterlimit="10"/><rect x="220.5" y="1119.5" width="119" height="80" fill="#8f5225" stroke="#8f5225" stroke-miterlimit="10"/><rect x="233.5" y="1154.5" width="94" height="50" rx="10" fill="#00798c" stroke="#00798c" stroke-miterlimit="10"/><rect x="245.5" y="1170.5" width="69" height="33" rx="5" fill="#89b4ba" stroke="#89b4ba" stroke-miterlimit="10"/><rect x="353.5" y="1154.5" width="94" height="50" rx="10" fill="#00798c" stroke="#00798c" stroke-miterlimit="10"/><rect x="365.5" y="1170.5" width="69" height="33" rx="5" fill="#89b4ba" stroke="#89b4ba" stroke-miterlimit="10"/><path d="M499.36,1231a10.07,10.07,0,0,1-10.14,10H197.16A10.07,10.07,0,0,1,187,1231a9.88,9.88,0,0,1,3-7.07,10.19,10.19,0,0,1,7.17-2.93H489.22A10.07,10.07,0,0,1,499.36,1231Z" transform="translate(0.31 0.5)" fill="#008da1" stroke="#008da1" stroke-miterlimit="10"/><path d="M339.19,1221v20h-142A10.07,10.07,0,0,1,187,1231a9.88,9.88,0,0,1,3-7.07,10.19,10.19,0,0,1,7.17-2.93Z" transform="translate(0.31 0.5)" fill="#008da1" stroke="#008da1" stroke-miterlimit="10"/><polygon points="493 1221.5 192.26 1222.93 220.5 1199.5 459.5 1199.5 493 1221.5" fill="#00bcd7" stroke="#00bcd7" stroke-miterlimit="10"/><polygon points="339.5 1221.5 192.26 1222.93 220.5 1199.5 339.5 1199.5 339.5 1221.5" fill="#00a4b7" stroke="#00a4b7" stroke-miterlimit="10"/><path d="M507.19,1255c0-8.84-6.27-16-14-16h-299a13.18,13.18,0,0,0-9.9,4.68,17.21,17.21,0,0,0-4.1,11.32c0,8.84,6.27,16,14,16h289v27h19v-29H500A16.46,16.46,0,0,0,507.19,1255Z" transform="translate(0.31 0.5)" fill="#a06539" stroke="#a06539" stroke-miterlimit="10"/><path d="M339.19,1239h-145a13.18,13.18,0,0,0-9.9,4.68,17.21,17.21,0,0,0-4.1,11.32,16.46,16.46,0,0,0,7.23,14h-.23v29h19v-27h133Z" transform="translate(0.31 0.5)" fill="#8f5225" stroke="#8f5225" stroke-miterlimit="10"/></g><g id="aafc2aad-b328-497b-8ddf-7ee5fa04b750" data-name="Calque 4"><rect x="690.5" y="416.5" width="690" height="24" fill="#a48a7b" stroke="#a48a7b" stroke-miterlimit="10"/><rect x="690.5" y="0.5" width="690" height="415" fill="#ebe4da" stroke="#ebe4da" stroke-miterlimit="10"/><rect x="690.5" y="0.5" width="88" height="415" fill="#d7ccba" stroke="#d7ccba" stroke-miterlimit="10"/><rect x="822.5" y="0.5" width="88" height="415" fill="#d7ccba" stroke="#d7ccba" stroke-miterlimit="10"/><rect x="954.5" y="0.5" width="88" height="415" fill="#d7ccba" stroke="#d7ccba" stroke-miterlimit="10"/><rect x="1086.5" y="0.5" width="88" height="415" fill="#d7ccba" stroke="#d7ccba" stroke-miterlimit="10"/><rect x="1218.5" y="0.5" width="88" height="415" fill="#d7ccba" stroke="#d7ccba" stroke-miterlimit="10"/><rect x="1350.5" y="0.5" width="30" height="415" fill="#d7ccba" stroke="#d7ccba" stroke-miterlimit="10"/><rect x="690.5" y="440.5" width="690" height="249" fill="#c8bab1" stroke="#c8bab1" stroke-miterlimit="10"/><rect x="753.5" y="92.5" width="208" height="91" fill="#8f5225" stroke="#8f5225" stroke-miterlimit="10"/><rect x="763.5" y="99.5" width="188" height="75" fill="#35c9df" stroke="#35c9df" stroke-miterlimit="10"/><rect x="763.5" y="138.5" width="188" height="37" fill="#00bcd7" stroke="#00bcd7" stroke-miterlimit="10"/><rect x="985.5" y="89.5" width="125" height="327" fill="#97592b" stroke="#97592b" stroke-miterlimit="10"/><rect x="985.5" y="89.5" width="62" height="327" fill="#8f5225" stroke="#8f5225" stroke-miterlimit="10"/><path d="M778.36,116.5s-10-2-9.67,4.67,7.34,5,9.67,4.66,7.33,6.34,18,4.67,14.33-7,14.33-7,12.33-.66,11-9.32c-3-8-16-8-22.67-3.34C794.36,110.5,783.36,109.83,778.36,116.5Z" transform="translate(0.31 0.5)" fill="#fff" stroke="#fff" stroke-miterlimit="10"/><ellipse cx="882.33" cy="111.67" rx="7.67" ry="3.33" fill="#fff" stroke="#fff" stroke-miterlimit="10"/><ellipse cx="920.67" cy="118" rx="12.67" ry="7.67" fill="#fff" stroke="#fff" stroke-miterlimit="10"/><polygon points="816.67 147.17 830.67 156.5 864 156.5 868.67 148.67 816.67 147.17" fill="#cead78" stroke="#cead78" stroke-miterlimit="10"/><polygon points="840 112.83 814.67 144.5 847 144.5 840 112.83" fill="#fff" stroke="#fff" stroke-miterlimit="10"/><polygon points="846.5 112 846.5 144.5 869 144.5 846.5 112" fill="#fff" stroke="#fff" stroke-miterlimit="10"/><rect x="999.5" y="361.5" width="96" height="48" rx="20" fill="#a06539" stroke="#a06539" stroke-miterlimit="10"/><path d="M1047.19,361v48h-28a20,20,0,0,1-20-20v-8a20,20,0,0,1,20-20Z" transform="translate(0.31 0.5)" fill="#8c5831" stroke="#8c5831" stroke-miterlimit="10"/><rect x="1035.5" y="379.5" width="24" height="11" rx="5.33" fill="#3d3a38" stroke="#3d3a38" stroke-miterlimit="10"/><rect x="1001.5" y="297.5" width="94" height="54" fill="#eae5da" stroke="#eae5da" stroke-miterlimit="10"/><rect x="1001.5" y="297.5" width="46" height="54" fill="#c2b3a0" stroke="#c2b3a0" stroke-miterlimit="10"/><rect x="1006.5" y="304.5" width="84" height="47" fill="#00a4b7" stroke="#00a4b7" stroke-miterlimit="10"/><rect x="1006.5" y="304.5" width="41" height="47" fill="#00798c" stroke="#00798c" stroke-miterlimit="10"/><rect x="1035.5" y="320.5" width="24" height="11" rx="5.33" fill="#3d3a38" stroke="#3d3a38" stroke-miterlimit="10"/><rect x="1035.5" y="256.5" width="24" height="11" rx="5.33" fill="none" stroke="#000" stroke-miterlimit="10"/><rect x="1001.5" y="233.5" width="94" height="54" fill="#eae5da" stroke="#eae5da" stroke-miterlimit="10"/><rect x="1001.5" y="233.5" width="46" height="54" fill="#c2b3a0" stroke="#c2b3a0" stroke-miterlimit="10"/><rect x="1001.5" y="167.5" width="94" height="54" fill="#fff" stroke="#fff" stroke-miterlimit="10"/><rect x="1001.5" y="167.5" width="46" height="54" fill="#c1b2a1" stroke="#c1b2a1" stroke-miterlimit="10"/><rect x="1001.5" y="103.5" width="46" height="54" fill="#c1b2a1" stroke="#c1b2a1" stroke-miterlimit="10"/><rect x="1001.5" y="103.5" width="94" height="54" fill="#fff" stroke="#fff" stroke-miterlimit="10"/><rect x="1006.5" y="240.5" width="84" height="47" fill="#86837c" stroke="#86837c" stroke-miterlimit="10"/><rect x="1006.5" y="240.5" width="41" height="47" fill="#6e665b" stroke="#6e665b" stroke-miterlimit="10"/><rect x="1035.5" y="256.5" width="24" height="11" rx="5.33" fill="#3d3a38" stroke="#3d3a38" stroke-miterlimit="10"/><rect x="1004.19" y="110" width="16" height="46" transform="translate(-7.4 88.61) rotate(-4.97)" fill="#181714" stroke="#181714" stroke-miterlimit="10"/><rect x="1021.09" y="105.45" width="16" height="50.55" transform="translate(-7.95 127.29) rotate(-7.02)" fill="#009b98" stroke="#009b98" stroke-miterlimit="10"/><rect x="1038.19" y="110" width="16" height="46" transform="translate(-8.03 120.45) rotate(-6.54)" fill="#d77800" stroke="#d77800" stroke-miterlimit="10"/><rect x="1079.5" y="111.5" width="16" height="46" fill="#d77800" stroke="#d77800" stroke-miterlimit="10"/><rect x="1063.5" y="111.5" width="16" height="46" fill="#86837c" stroke="#86837c" stroke-miterlimit="10"/><rect x="1001.5" y="175.5" width="14" height="46" fill="#181716" stroke="#181716" stroke-miterlimit="10"/><rect x="1015.5" y="175.5" width="14" height="46" fill="#d77a00" stroke="#d77a00" stroke-miterlimit="10"/><rect x="1029.5" y="175.5" width="14" height="46" fill="#017078" stroke="#017078" stroke-miterlimit="10"/><rect x="1043.5" y="175.5" width="14" height="46" fill="#86837b" stroke="#86837b" stroke-miterlimit="10"/><rect x="1060.5" y="167.5" width="14" height="54" fill="#00aab3" stroke="#00aab3" stroke-miterlimit="10"/><rect x="986.5" y="416.5" width="17" height="21" fill="#8f5225" stroke="#8f5225" stroke-miterlimit="10"/><rect x="1092.5" y="416.5" width="17" height="21" fill="#97592b" stroke="#97592b" stroke-miterlimit="10"/><path d="M1222.19,341v8h72v27h-72v6h72v29h-72v8h71v16h13V341Z" transform="translate(0.31 0.5)" fill="#97592b" stroke="#97592b" stroke-miterlimit="10"/><rect x="1154.5" y="386.5" width="63" height="24" fill="#fd6d24" stroke="#fd6d24" stroke-miterlimit="10"/><rect x="1154.5" y="386.5" width="33" height="24" fill="#e45f1e" stroke="#e45f1e" stroke-miterlimit="10"/><path d="M1195.19,396.5a3.5,3.5,0,0,1-3.5,3.5h-10a3.5,3.5,0,0,1-3.5-3.5h0a3.5,3.5,0,0,1,3.5-3.5h10a3.5,3.5,0,0,1,3.5,3.5Z" transform="translate(0.31 0.5)" fill="#25989f" stroke="#25989f" stroke-miterlimit="10"/><rect x="1230.5" y="386.5" width="63" height="24" fill="#fd6d24" stroke="#fd6d24" stroke-miterlimit="10"/><rect x="1230.5" y="386.5" width="33" height="24" fill="#e45f1e" stroke="#e45f1e" stroke-miterlimit="10"/><path d="M1271.19,396.5a3.5,3.5,0,0,1-3.5,3.5h-10a3.5,3.5,0,0,1-3.5-3.5h0a3.5,3.5,0,0,1,3.5-3.5h10a3.5,3.5,0,0,1,3.5,3.5Z" transform="translate(0.31 0.5)" fill="#25989f" stroke="#25989f" stroke-miterlimit="10"/><rect x="1146" y="213" width="155" height="110" rx="10" fill="#4b494a"/><rect x="1146.5" y="212.5" width="155" height="110" rx="10" fill="none" stroke="#4b494a" stroke-miterlimit="10"/>

<g id="TV" >
<rect x="1154.5" y="220.5" width="139" height="95" fill="#01a4b7" stroke="#01a4b7" stroke-miterlimit="10"/>
<polygon  points="1154.5 315.5 1154.5 220.5 1293.5 220.5 1154.5 315.5" fill="#35c9df" stroke="#35c9df" stroke-miterlimit="10"/>
<polygon points="1251 341.5 1196.75 341.5 1217.5 329 1217.5 321.5 1230.5 321.5 1230.5 329.5 1251 341.5" fill="#3a393a" stroke="#3a393a" stroke-miterlimit="10"/>
 </g>

<g id="lamps" >
<path d="M605.69,1158.33s-1.17,9.17-6.17,13.84c-4.24,3.92-9.75,4.73-14.33,4.51a32.58,32.58,0,0,1-8.83-1.68,17.67,17.67,0,0,1-10.17-12c-5-17.5,5-40.5,5-40.5s6.68-.06,14-.07c5.92,0,12.25,0,15.83.07C607.36,1135,605.69,1158.33,605.69,1158.33Z" transform="translate(0.31 0.5)" fill="#85b7c2" stroke="#85b7c2" stroke-miterlimit="10"/>
<polygon points="634.5 1126.5 537.5 1126.5 560.5 1050.5 611.5 1050.5 634.5 1126.5" fill="#fd6d24" stroke="#fd6d24" stroke-miterlimit="10"/>
<polygon points="585.5 1050.5 585.5 1126.5 537.5 1126.5 560.5 1050.5 585.5 1050.5" fill="#e45f1e" stroke="#e45f1e" stroke-miterlimit="10"/>
<polygon points="103.5 1050.5 103.5 1126.5 55.5 1126.5 78.5 1050.5 103.5 1050.5" fill="#e45f1e" stroke="#e45f1e" stroke-miterlimit="10"/>
<path d="M114.86,1137s4.83,9.58,0,23.25c0,0,1.83,4.58,4.83,1.33,3.42-14.83,0-25.5,0-25.5S116.36,1132.83,114.86,1137Z" transform="translate(0.31 0.5)" fill="#fff" stroke="#fff" stroke-miterlimit="10"/>
<polygon points="152.5 1126.5 55.5 1126.5 78.5 1050.5 129.5 1050.5 152.5 1126.5" fill="#fd6d24" stroke="#fd6d24" stroke-miterlimit="10"/>
<path d="M123.69,1158.33s-1.17,9.17-6.17,13.84c-4.24,3.92-9.75,4.73-14.33,4.51a32.58,32.58,0,0,1-8.83-1.68,17.67,17.67,0,0,1-10.17-12c-5-17.5,5-40.5,5-40.5s6.68-.06,14-.07c5.92,0,12.25,0,15.83.07C125.36,1135,123.69,1158.33,123.69,1158.33Z" transform="translate(0.31 0.5)" fill="#85b7c2" stroke="#85b7c2" stroke-miterlimit="10"/>
</g>

<g id="sink" >
<path d="M146.19,251v51h-1.36c-2.43,0-4.64-1.34-4.64-3V254c0-1.66,2.21-3,4.64-3Z" transform="translate(0.31 0.5)" fill="#728188" stroke="#728188" stroke-miterlimit="10"/>
<rect x="122.5" y="277.5" width="16" height="15" fill="#728188" stroke="#728188" stroke-miterlimit="10"/>
<rect x="154.5" y="277.5" width="16" height="15" fill="#8197a2" stroke="#8197a2" stroke-miterlimit="10"/>
</g>

<polygon points="638.5 1174.5 532.5 1174.5 532.5 1284.5 533.5 1284.5 533.5 1293.5 542.5 1293.5 542.5 1284.5 628.5 1284.5 628.5 1293.5 637.5 1293.5 637.5 1284.5 638.5 1284.5 638.5 1174.5" fill="#8f5225" stroke="#8f5225" stroke-miterlimit="10"/>
<polygon points="1223.5 321.5 1223.5 341.5 1196.75 341.5 1217.5 329 1217.5 321.5 1223.5 321.5" fill="#4b494a" stroke="#4b494a" stroke-miterlimit="10"/><polygon points="878.75 438.5 833.75 438.5 816.5 357.5 893.5 357.5 878.75 438.5" fill="#4a4a4a" stroke="#4a4a4a" stroke-miterlimit="10"/><polygon points="826.75 362.5 837.25 433.5 841 433.5 838 362.5 826.75 362.5" fill="#fff" stroke="#fff" stroke-miterlimit="10"/><path d="M866.69,357h-26s-9.5-15.75-3.5-31.25,8.25-18.5,3.5-31c8.5-1,18.25,17,18.25,17l-.25,3S851,328.25,851,337.5C851,345.16,851.64,348.64,866.69,357Z" transform="translate(0.31 0.5)" fill="#795547" stroke="#795547" stroke-miterlimit="10"/><path d="M840.69,294.75s17.71,14.43,18.11,18.72,11.39-24.72-4.11-33.22c6.25.5,10.5,4.25,16.75,2.75,1.5-3-7.75-17.25-7.75-17.25s0-4.25,15,2.75c-5-25-26.5-22-26.5-22l-9.5-.11s-.25-4.89,24-3.89c5-.5-2.25-6.25-2.25-6.25S847.94,220,824.94,235c-6.5,3.5-11.25-5.25-7-14.75a65.45,65.45,0,0,1,8.5-14.5s-21,6.25-23,17.25-6.5,16-6.5,16-35.25-10.5-48.25,4.25c-5.47,9.59-4,8.75-4,8.75s14.25-17.75,39.75-2.75c9.5,4,5.75,10.57,5.75,10.57s-25,12.68-28.5,21.18c-5.5,11.25.5,28.75.5,28.75s1-30.5,23-30.25c9.5.32,11.75,2.25,11.75,2.25s-14,28,.75,53.75c4.42,6.17,5.5,5.75,5.5,5.75s-1.5-46.08,9.08-52.08c0,4.58-4.66,23.91,14.92,38.66.67-8,0-25.08,0-25.08s12.42,9.08,13.58,10.83-3.25-10.45-1.75-17.83C839.4,293.91,840.69,294.75,840.69,294.75Z" transform="translate(0.31 0.5)" fill="#009788" stroke="#009788" stroke-miterlimit="10"/><path d="M821.86,239.67s-.33-25.34,25.5-22c-19.17-16-37.84,16.5-37.84,16.5s-7.5-22.34-28.5-17c4,1.83,16.51,11.5,12.84,17.5S771.19,229.5,765.52,256c5.17-5.83,20.17-8,20.17-8s-21.83,8.5-17,29.67c3.33-4,6.84-9.34,6.84-9.34s-6,19.5,2.16,29.17c4.88-.13,7-22.83,7-22.83s3.61,19.21,12,25.33A78.16,78.16,0,0,1,800,282s5.3-7.65,9,10.84c1.18-3.34,4.51-12.34,5.51-11.84s7.34,14.17,8.17,16.33,8.5-11.33-3.83-31.16c4,2.33,14.52,10.68,23.84,30.26,5,1,1.66-29.1-14.68-41.43,11.67-14.67,29.17.83,31,7.33S860.24,233.14,821.86,239.67Z" transform="translate(0.31 0.5)" fill="#61b522" stroke="#61b522" stroke-miterlimit="10"/><polygon points="1153.5 349.5 1153.5 376.5 1222.5 376.5 1222.5 382.5 1153.5 382.5 1153.5 411.5 1222.5 411.5 1222.5 419.5 1154.5 419.5 1154.5 435.5 1141.5 435.5 1141.5 341.5 1222.5 341.5 1222.5 349.5 1153.5 349.5" fill="#8f5225" stroke="#8f5225" stroke-miterlimit="10"/><path d="M865.19,507.5v95a8.5,8.5,0,0,1-17,0V594h-124v8.5a8.5,8.5,0,0,1-17,0v-95a8.5,8.5,0,0,1,17,0V522h124V507.5a8.5,8.5,0,0,1,17,0Z" transform="translate(0.31 0.5)" fill="#97592b" stroke="#97592b" stroke-miterlimit="10"/><path d="M786.19,522v72h-62v8.5a8.5,8.5,0,0,1-17,0v-95a8.5,8.5,0,0,1,17,0V522Z" transform="translate(0.31 0.5)" fill="#8f5225" stroke="#8f5225" stroke-miterlimit="10"/><rect x="722.5" y="445.5" width="127" height="88" rx="20" fill="#fd6d24" stroke="#fd6d24" stroke-miterlimit="10"/><path d="M786.19,445v88h-44a20,20,0,0,1-20-20V465a20,20,0,0,1,20-20Z" transform="translate(0.31 0.5)" fill="#e45f1e" stroke="#e45f1e" stroke-miterlimit="10"/><rect x="721.5" y="536.5" width="130" height="45" rx="20" fill="#fd6d24" stroke="#fd6d24" stroke-miterlimit="10"/><path d="M786.19,536v45h-45a20,20,0,0,1-20-20v-5a20,20,0,0,1,20-20Z" transform="translate(0.31 0.5)" fill="#e45f1e" stroke="#e45f1e" stroke-miterlimit="10"/><circle cx="786.5" cy="463.33" r="3.56" fill="#8f5225" stroke="#8f5225" stroke-miterlimit="10"/><circle cx="747.5" cy="463.33" r="3.56" fill="#8f5225" stroke="#8f5225" stroke-miterlimit="10"/><circle cx="825.5" cy="463.33" r="3.56" fill="#8f5225" stroke="#8f5225" stroke-miterlimit="10"/><circle cx="786.5" cy="516.33" r="3.56" fill="#8f5225" stroke="#8f5225" stroke-miterlimit="10"/><circle cx="747.5" cy="516.33" r="3.56" fill="#8f5225" stroke="#8f5225" stroke-miterlimit="10"/><circle cx="825.5" cy="516.33" r="3.56" fill="#8f5225" stroke="#8f5225" stroke-miterlimit="10"/><circle cx="786.5" cy="489.33" r="3.56" fill="#8f5225" stroke="#8f5225" stroke-miterlimit="10"/><circle cx="747.5" cy="489.33" r="3.56" fill="#8f5225" stroke="#8f5225" stroke-miterlimit="10"/><circle cx="825.5" cy="489.33" r="3.56" fill="#8f5225" stroke="#8f5225" stroke-miterlimit="10"/><path d="M1363.19,507.5v95c0,4.69-5.2,8.5-12,8.5s-12-3.81-12-8.5V594h-180v8.5c0,4.69-5.2,8.5-12,8.5s-12-3.81-12-8.5v-95c0-4.69,5.2-8.5,12-8.5s12,3.81,12,8.5V522h180V507.5c0-4.69,5.2-8.5,12-8.5S1363.19,502.81,1363.19,507.5Z" transform="translate(0.31 0.5)" fill="#97592b" stroke="#97592b" stroke-miterlimit="10"/><path d="M1249.19,522v72h-90v8.5c0,4.69-5.2,8.5-12,8.5s-12-3.81-12-8.5v-95c0-4.69,5.2-8.5,12-8.5s12,3.81,12,8.5V522Z" transform="translate(0.31 0.5)" fill="#8f5225" stroke="#8f5225" stroke-miterlimit="10"/><path d="M1360.19,465v48a20,20,0,0,1-20,20h-107V445h107A20,20,0,0,1,1360.19,465Z" transform="translate(0.31 0.5)" fill="#fd6d24" stroke="#fd6d24" stroke-miterlimit="10"/><path d="M1249.19,445v88h-91a20,20,0,0,1-20-20V465a20,20,0,0,1,20-20Z" transform="translate(0.31 0.5)" fill="#e45f1e" stroke="#e45f1e" stroke-miterlimit="10"/><rect x="1184.5" y="537.5" width="130" height="45" rx="20" fill="#fd6d24" stroke="#fd6d24" stroke-miterlimit="10"/><path d="M1249.19,537v45h-45a20,20,0,0,1-20-20v-5a20,20,0,0,1,20-20Z" transform="translate(0.31 0.5)" fill="#e45f1e" stroke="#e45f1e" stroke-miterlimit="10"/><circle cx="1194.5" cy="463.33" r="3.56" fill="#8f5225" stroke="#8f5225" stroke-miterlimit="10"/><circle cx="1155.5" cy="463.33" r="3.56" fill="#8f5225" stroke="#8f5225" stroke-miterlimit="10"/><circle cx="1233.5" cy="463.33" r="3.56" fill="#8f5225" stroke="#8f5225" stroke-miterlimit="10"/><circle cx="1194.5" cy="516.33" r="3.56" fill="#8f5225" stroke="#8f5225" stroke-miterlimit="10"/><circle cx="1155.5" cy="516.33" r="3.56" fill="#8f5225" stroke="#8f5225" stroke-miterlimit="10"/><circle cx="1233.5" cy="516.33" r="3.56" fill="#8f5225" stroke="#8f5225" stroke-miterlimit="10"/><circle cx="1194.5" cy="489.33" r="3.56" fill="#8f5225" stroke="#8f5225" stroke-miterlimit="10"/><circle cx="1155.5" cy="489.33" r="3.56" fill="#8f5225" stroke="#8f5225" stroke-miterlimit="10"/><circle cx="1233.5" cy="489.33" r="3.56" fill="#8f5225" stroke="#8f5225" stroke-miterlimit="10"/><circle cx="1305.5" cy="463.33" r="3.56" fill="#8f5225" stroke="#8f5225" stroke-miterlimit="10"/><circle cx="1266.5" cy="463.33" r="3.56" fill="#8f5225" stroke="#8f5225" stroke-miterlimit="10"/><circle cx="1344.5" cy="463.33" r="3.56" fill="#8f5225" stroke="#8f5225" stroke-miterlimit="10"/><circle cx="1305.5" cy="516.33" r="3.56" fill="#8f5225" stroke="#8f5225" stroke-miterlimit="10"/><circle cx="1266.5" cy="516.33" r="3.56" fill="#8f5225" stroke="#8f5225" stroke-miterlimit="10"/><circle cx="1344.5" cy="516.33" r="3.56" fill="#8f5225" stroke="#8f5225" stroke-miterlimit="10"/><circle cx="1305.5" cy="489.33" r="3.56" fill="#8f5225" stroke="#8f5225" stroke-miterlimit="10"/><circle cx="1266.5" cy="489.33" r="3.56" fill="#8f5225" stroke="#8f5225" stroke-miterlimit="10"/><circle cx="1344.5" cy="489.33" r="3.56" fill="#8f5225" stroke="#8f5225" stroke-miterlimit="10"/><path d="M908.19,505v23h6v74.63c0,5.52,4.13,10.37,8.61,10.37h2.44c4.48,0,8-4.85,8-10.37V566h132v36.63c0,5.52,4.13,10.37,8.61,10.37h2.44c4.48,0,8-4.85,8-10.37V528h8V505Zm157,27h-132v-4h132Z" transform="translate(0.31 0.5)" fill="#97592b" stroke="#97592b" stroke-miterlimit="10"/><path d="M1064.19,534v-2h-128v25h128v-3h-3V534Zm-11,0v20h-3V534Zm-6,0v20h-3V534Zm-5,0v20h-3V534Zm-6,0v20h-3V534Zm-5,0v20h-3V534Zm-6,0v20h-3V534Zm-6,0v20h-2V534Zm-5,0v20h-3V534Zm-6,0v20h-2V534Zm-5,0v20h-3V534Zm-6,0v20h-3V534Zm-5,0v20h-3V534Zm-6,0v20h-3V534Zm-5,0v20h-3V534Zm-6,0v20h-3V534Zm-6,0v20h-2V534Zm-5,0v20h-3V534Zm-6,0v20h-2V534Zm-5,0v20h-3V534Zm-6,0v20h-3V534Zm-8,0h3v20h-3Zm119,20h-2V534h2Z" transform="translate(0.31 0.5)" fill="#a06539" stroke="#a06539" stroke-miterlimit="10"/><circle cx="971.83" cy="489.67" r="9" fill="#7caa40" stroke="#7caa40" stroke-miterlimit="10"/><circle cx="981.83" cy="475.67" r="9" fill="#7caa40" stroke="#7caa40" stroke-miterlimit="10"/><path d="M1002.52,466.17a9,9,0,0,1-9,9h-.33a9,9,0,0,1,0-18h.33A9,9,0,0,1,1002.52,466.17Z" transform="translate(0.31 0.5)" fill="#8bc34a" stroke="#8bc34a" stroke-miterlimit="10"/><circle cx="1003.83" cy="479.67" r="9" fill="#8bc34a" stroke="#8bc34a" stroke-miterlimit="10"/><path d="M1000.52,489.17a9,9,0,0,1-7.33,8.85,9.18,9.18,0,0,1-1.67.15,9,9,0,0,1,0-18,9.18,9.18,0,0,1,1.67.15A9,9,0,0,1,1000.52,489.17Z" transform="translate(0.31 0.5)" fill="#8bc34a" stroke="#8bc34a" stroke-miterlimit="10"/><circle cx="1004.83" cy="489.67" r="9" fill="#8bc34a" stroke="#8bc34a" stroke-miterlimit="10"/><circle cx="1015.83" cy="489.67" r="9" fill="#8bc34a" stroke="#8bc34a" stroke-miterlimit="10"/><path d="M993.19,457.18v18a9,9,0,0,1,0-18Z" transform="translate(0.31 0.5)" fill="#7caa40" stroke="#7caa40" stroke-miterlimit="10"/><path d="M991.52,480.17a9.18,9.18,0,0,1,1.67.15V498a9.18,9.18,0,0,1-1.67.15,9,9,0,0,1,0-18Z" transform="translate(0.31 0.5)" fill="#7caa40" stroke="#7caa40" stroke-miterlimit="10"/><polygon points="1033 491.5 1028.5 504.5 958.5 504.5 955.17 491.5 1033 491.5" fill="#35c9df" stroke="#35c9df" stroke-miterlimit="10"/><polygon points="993.5 491.5 993.5 504.5 958.5 504.5 955.17 491.5 993.5 491.5" fill="#00bcd7" stroke="#00bcd7" stroke-miterlimit="10"/><path d="M934.19,532.08V528h66V505h-92v23h6v74c0,5.54,3.8,10,8.28,10h2.44c4.48,0,8.28-4.49,8.28-10V565h67V532Z" transform="translate(0.31 0.5)" fill="#8f5225" stroke="#8f5225" stroke-miterlimit="10"/><path d="M1064.19,534v-2h-128v25h128v-3h-3V534Zm-11,0v20h-3V534Zm-6,0v20h-3V534Zm-5,0v20h-3V534Zm-6,0v20h-3V534Zm-5,0v20h-3V534Zm-6,0v20h-3V534Zm-6,0v20h-2V534Zm-5,0v20h-3V534Zm-6,0v20h-2V534Zm-5,0v20h-3V534Zm-6,0v20h-3V534Zm-5,0v20h-3V534Zm-6,0v20h-3V534Zm-5,0v20h-3V534Zm-6,0v20h-3V534Zm-6,0v20h-2V534Zm-5,0v20h-3V534Zm-6,0v20h-2V534Zm-5,0v20h-3V534Zm-6,0v20h-3V534Zm-8,0h3v20h-3Zm119,20h-2V534h2Z" transform="translate(0.31 0.5)" fill="#a06539" stroke="#a06539" stroke-miterlimit="10"/></g><g id="bed540dd-1ff3-4c13-9bda-e83651d330cf" data-name="Calque 5"><rect x="690.5" y="689.5" width="690" height="453" fill="#b3b3b3" stroke="#f5b0cd" stroke-miterlimit="10"/><rect x="690.5" y="1125.5" width="690" height="255" fill="#333" stroke="#bb7b96" stroke-miterlimit="10"/><rect x="849.5" y="978.5" width="515" height="154" fill="#4a4a4a" stroke="#4a4a4a" stroke-miterlimit="10"/><polygon points="1364.5 1132.5 1013.5 1132.5 1364.5 978.5 1364.5 1132.5" fill="#41403e" stroke="#41403e" stroke-miterlimit="10"/><rect x="849.5" y="994.5" width="181" height="138" fill="#8f5225" stroke="#8f5225" stroke-miterlimit="10"/><rect x="855.5" y="997.5" width="170" height="40" fill="#a06539" stroke="#a06539" stroke-miterlimit="10"/><rect x="919.5" y="1015.5" width="39" height="8" fill="#764b5c" stroke="#764b5c" stroke-miterlimit="10"/><rect x="855.5" y="1042.5" width="170" height="40" fill="#a06539" stroke="#a06539" stroke-miterlimit="10"/><rect x="919.5" y="1060.5" width="39" height="8" fill="#764b5c" stroke="#764b5c" stroke-miterlimit="10"/><rect x="855.5" y="1087.5" width="170" height="40" fill="#a06539" stroke="#a06539" stroke-miterlimit="10"/><rect x="919.5" y="1105.5" width="39" height="8" fill="#764b5c" stroke="#764b5c" stroke-miterlimit="10"/><rect x="1192.5" y="994.5" width="172" height="138" fill="#8f5225" stroke="#8f5225" stroke-miterlimit="10"/><rect x="1280.5" y="997.5" width="79" height="128" fill="#a06539" stroke="#a06539" stroke-miterlimit="10"/><rect x="1198.5" y="997.5" width="79" height="128" fill="#a06539" stroke="#a06539" stroke-miterlimit="10"/><rect x="1260.5" y="1030.5" width="7" height="30" fill="#764b5c" stroke="#764b5c" stroke-miterlimit="10"/><rect x="1290.5" y="1030.5" width="7" height="30" fill="#764b5c" stroke="#764b5c" stroke-miterlimit="10"/><rect x="1030.5" y="984.5" width="162" height="49" fill="#929292" stroke="#929292" stroke-miterlimit="10"/><polygon points="1192.5 1033.5 1034.67 1033.5 1192.5 984.5 1192.5 1033.5" fill="#837f7c" stroke="#837f7c" stroke-miterlimit="10"/><rect x="1092.5" y="1002.5" width="40" height="21" fill="#4a4a4a" stroke="#4a4a4a" stroke-miterlimit="10"/><circle cx="1047" cy="1012" r="6.5" fill="#766f6b" stroke="#766f6b" stroke-miterlimit="10"/><circle cx="1077" cy="1012" r="6.5" fill="#766f6b" stroke="#766f6b" stroke-miterlimit="10"/><circle cx="1146" cy="1012" r="6.5" fill="#766f6b" stroke="#766f6b" stroke-miterlimit="10"/><circle cx="1176" cy="1012" r="6.5" fill="#766f6b" stroke="#766f6b" stroke-miterlimit="10"/><rect x="849.5" y="906.5" width="253" height="13" fill="#929292" stroke="#929292" stroke-miterlimit="10"/><path d="M863.19,946.2V918h-4v28.2a10,10,0,1,0,4,0Z" transform="translate(0.31 0.5)" fill="#929292" stroke="#929292" stroke-miterlimit="10"/><polygon points="891.5 947.5 891.5 918.5 887.5 918.5 887.5 947.5 881.5 947.5 881.5 949.5 881.5 950.5 881.5 959.5 884.5 959.5 884.5 950.5 888.5 950.5 888.5 959.5 891.5 959.5 891.5 950.5 894.5 950.5 894.5 959.5 897.5 959.5 897.5 950.5 897.5 949.5 897.5 947.5 891.5 947.5" fill="#929292" stroke="#929292" stroke-miterlimit="10"/><path d="M918.19,945.1V917h-5v28.1c-1.78,1.66-3,5-3,8.9,0,5.52,2.46,10,5.5,10s5.5-4.48,5.5-10C921.19,950.12,920,946.76,918.19,945.1Z" transform="translate(0.31 0.5)" fill="#929292" stroke="#929292" stroke-miterlimit="10"/><polygon points="1189.32 947.41 1187.58 943.81 1179.5 947.71 1179.5 937.5 1128.5 937.5 1128.5 977.5 1179.5 977.5 1179.5 952.15 1189.32 947.41" fill="#929292" stroke="#929292" stroke-miterlimit="10"/><polygon points="1128.5 937.5 1128.5 947.71 1120.42 943.81 1118.68 947.41 1128.5 952.15 1128.5 977.5 1152.5 977.5 1152.5 937.5 1128.5 937.5" fill="#837f7d" stroke="#837f7d" stroke-miterlimit="10"/><path d="M1178.69,935h-51s11.93-13.47,22.5-14.67V914h5v6.18C1168.89,920.85,1178.69,935,1178.69,935Z" transform="translate(0.31 0.5)" fill="#929292" stroke="#929292" stroke-miterlimit="10"/><rect x="874.5" y="1144.5" width="279" height="26" fill="#8f5225" stroke="#8f5225" stroke-miterlimit="10"/><rect x="881.5" y="1174.5" width="22" height="119" fill="#764b5c" stroke="#764b5c" stroke-miterlimit="10"/><rect x="1121.5" y="1174.5" width="22" height="119" fill="#764b5c" stroke="#764b5c" stroke-miterlimit="10"/><polygon points="770.5 1203.5 770.5 1204.5 770.5 1214.5 770.5 1294.5 781.5 1294.5 781.5 1214.5 856.5 1214.5 856.5 1294.5 867.5 1294.5 867.5 1214.5 867.5 1204.5 867.5 1203.5 770.5 1203.5" fill="#8f5225" stroke="#8f5225" stroke-miterlimit="10"/><path d="M752.44,1072.13S782.69,1105,770.19,1199l97,.5v-15s-25.25-18.75-77.5-5.25c3.75-20.75,5.5-87.75-6.75-111.25C765.9,1059.71,752.44,1072.13,752.44,1072.13Z" transform="translate(0.31 0.5)" fill="#764b5c" stroke="#764b5c" stroke-miterlimit="10"/><polygon points="1252.5 1203.5 1252.5 1204.5 1252.5 1214.5 1252.5 1294.5 1241.5 1294.5 1241.5 1214.5 1166.5 1214.5 1166.5 1294.5 1155.5 1294.5 1155.5 1214.5 1155.5 1204.5 1155.5 1203.5 1252.5 1203.5" fill="#8f5225" stroke="#8f5225" stroke-miterlimit="10"/><path d="M1270.19,1072.13S1239.82,1105,1252.32,1199l-97.13.5v-15s25.38-18.75,77.63-5.25c-3.75-20.75-5.44-87.75,6.81-111.25C1256.67,1059.71,1270.19,1072.13,1270.19,1072.13Z" transform="translate(0.31 0.5)" fill="#764b5c" stroke="#764b5c" stroke-miterlimit="10"/><path d="M1152.19,914v21h-24.5s11.93-13.47,22.5-14.67V914Z" transform="translate(0.31 0.5)" fill="#837f7d" stroke="#837f7d" stroke-miterlimit="10"/><rect x="719.5" y="712.5" width="263" height="164" fill="#fff" stroke="#fff" stroke-miterlimit="10"/><rect x="733.5" y="723.5" width="236" height="142" fill="#b6748e" stroke="#b6748e" stroke-miterlimit="10"/><polygon points="733.5 865.44 733.5 723.5 969.95 723.5 733.5 865.44" fill="#f19cbe" stroke="#f19cbe" stroke-miterlimit="10"/><rect x="719.5" y="860.5" width="263" height="16" fill="#c0ada7" stroke="#c0ada7" stroke-miterlimit="10"/><path d="M834.23,821s-11.68-19.52,0-45.28c1.95,10.56,5.28,26.56,5.28,28s-.27-37.5,1.12-40.46,10.28,36.46,10.56,38.15,2.78-29.07,4.17-32.87c3.9-2.11,17.24,23.42,6.12,52.42Z" transform="translate(0.31 0.5)" fill="#61b522" stroke="#61b522" stroke-miterlimit="10"/><polygon points="866.79 866.5 833.42 866.5 823.14 817.5 876.52 817.5 866.79 866.5" fill="#764b5c" stroke="#764b5c" stroke-miterlimit="10"/><path d="M758.23,821s-11.68-19.52,0-45.28c1.95,10.56,5.28,26.56,5.28,28s-.27-37.5,1.12-40.46,10.28,36.46,10.56,38.15,2.78-29.07,4.17-32.87c3.9-2.11,17.24,23.42,6.12,52.42Z" transform="translate(0.31 0.5)" fill="#61b522" stroke="#61b522" stroke-miterlimit="10"/><polygon points="790.79 866.5 757.42 866.5 747.14 817.5 800.52 817.5 790.79 866.5" fill="#764b5c" stroke="#764b5c" stroke-miterlimit="10"/><path d="M909.23,821s-11.68-19.52,0-45.28c1.95,10.56,5.28,26.56,5.28,28s-.27-37.5,1.12-40.46,10.28,36.46,10.56,38.15,2.78-29.07,4.17-32.87c3.9-2.11,17.24,23.42,6.12,52.42Z" transform="translate(0.31 0.5)" fill="#61b522" stroke="#61b522" stroke-miterlimit="10"/><polygon points="941.79 866.5 908.42 866.5 898.14 817.5 951.52 817.5 941.79 866.5" fill="#764b5c" stroke="#764b5c" stroke-miterlimit="10"/><rect x="1008.5" y="715.5" width="356" height="164" fill="#8f5225" stroke="#8f5225" stroke-miterlimit="10"/><rect x="1013.5" y="720.5" width="179" height="153" fill="#86576b" stroke="#86576b" stroke-miterlimit="10"/><polygon points="1013.5 873.5 1013.5 720.5 1192.5 720.5 1013.5 873.5" fill="#764b5c" stroke="#764b5c" stroke-miterlimit="10"/><rect x="1198.5" y="723.5" width="160" height="71" fill="#a06539" stroke="#a06539" stroke-miterlimit="10"/><rect x="1198.5" y="802.5" width="160" height="71" fill="#a06539" stroke="#a06539" stroke-miterlimit="10"/><rect x="1179.5" y="781.5" width="7" height="37" fill="#764b5c" stroke="#764b5c" stroke-miterlimit="10"/><rect x="1260.5" y="777.5" width="34" height="8" fill="#764b5c" stroke="#764b5c" stroke-miterlimit="10"/><rect x="1260.5" y="855.5" width="34" height="8" fill="#764b5c" stroke="#764b5c" stroke-miterlimit="10"/><circle cx="1246.54" cy="955.64" r="13.16" fill="#7caa40" stroke="#7caa40" stroke-miterlimit="10"/><circle cx="1261.17" cy="935.16" r="13.16" fill="#7caa40" stroke="#7caa40" stroke-miterlimit="10"/><path d="M1291.57,921.5a13.17,13.17,0,0,1-13.17,13.17,3.85,3.85,0,0,1-.48,0,13.16,13.16,0,0,1,0-26.3h.48A13.17,13.17,0,0,1,1291.57,921.5Z" transform="translate(0.31 0.5)" fill="#8bc34a" stroke="#8bc34a" stroke-miterlimit="10"/><path d="M1306.2,940.51A13.17,13.17,0,1,1,1293,927.35,13.16,13.16,0,0,1,1306.2,940.51Z" transform="translate(0.31 0.5)" fill="#8bc34a" stroke="#8bc34a" stroke-miterlimit="10"/><path d="M1288.64,955.14a13.11,13.11,0,1,1-10.72-12.94A13.17,13.17,0,0,1,1288.64,955.14Z" transform="translate(0.31 0.5)" fill="#8bc34a" stroke="#8bc34a" stroke-miterlimit="10"/><circle cx="1294.81" cy="955.64" r="13.16" fill="#8bc34a" stroke="#8bc34a" stroke-miterlimit="10"/><circle cx="1310.89" cy="955.64" r="13.16" fill="#8bc34a" stroke="#8bc34a" stroke-miterlimit="10"/><path d="M1278.19,908.35v26.3a13.16,13.16,0,0,1,0-26.3Z" transform="translate(0.31 0.5)" fill="#7caa40" stroke="#7caa40" stroke-miterlimit="10"/><path d="M1275.61,942a16.43,16.43,0,0,1,2.58.22v25.88a16.43,16.43,0,0,1-2.58.22,13.16,13.16,0,1,1,0-26.32Z" transform="translate(0.31 0.5)" fill="#7caa40" stroke="#7caa40" stroke-miterlimit="10"/><polygon points="1336 958.5 1329.42 977.5 1227.04 977.5 1222.17 958.5 1336 958.5" fill="#86576b" stroke="#86576b" stroke-miterlimit="10"/><polygon points="1278.5 958.5 1278.5 977.5 1227.04 977.5 1222.17 958.5 1278.5 958.5" fill="#764b5c" stroke="#764b5c" stroke-miterlimit="10"/><circle cx="942.54" cy="1122.87" r="12.35" fill="#7caa40" stroke="#7caa40" stroke-miterlimit="10"/><path d="M968.31,1103.15A12.35,12.35,0,1,1,956,1090.8,12.35,12.35,0,0,1,968.31,1103.15Z" transform="translate(0.31 0.5)" fill="#7caa40" stroke="#7caa40" stroke-miterlimit="10"/><path d="M984.78,1090.8a12.35,12.35,0,0,1-12.35,12.36,3.62,3.62,0,0,1-.46,0,12.35,12.35,0,0,1,0-24.68h.46A12.35,12.35,0,0,1,984.78,1090.8Z" transform="translate(0.31 0.5)" fill="#8bc34a" stroke="#8bc34a" stroke-miterlimit="10"/><path d="M998.51,1108.64a12.35,12.35,0,1,1-12.35-12.35A12.35,12.35,0,0,1,998.51,1108.64Z" transform="translate(0.31 0.5)" fill="#8bc34a" stroke="#8bc34a" stroke-miterlimit="10"/><path d="M982,1122.37A12.34,12.34,0,1,1,972,1110.23,12.38,12.38,0,0,1,982,1122.37Z" transform="translate(0.31 0.5)" fill="#8bc34a" stroke="#8bc34a" stroke-miterlimit="10"/><circle cx="987.84" cy="1122.87" r="12.35" fill="#8bc34a" stroke="#8bc34a" stroke-miterlimit="10"/><circle cx="1002.94" cy="1122.87" r="12.35" fill="#8bc34a" stroke="#8bc34a" stroke-miterlimit="10"/><path d="M972.19,1078.46v24.68a12.35,12.35,0,0,1,0-24.68Z" transform="translate(0.31 0.5)" fill="#7caa40" stroke="#7caa40" stroke-miterlimit="10"/><path d="M969.79,1110a16,16,0,0,1,2.4.21v24.29a16,16,0,0,1-2.4.21,12.36,12.36,0,0,1,0-24.71Z" transform="translate(0.31 0.5)" fill="#7caa40" stroke="#7caa40" stroke-miterlimit="10"/><polygon points="1026.5 1125.5 1020.32 1143.5 924.24 1143.5 919.67 1125.5 1026.5 1125.5" fill="#86576b" stroke="#86576b" stroke-miterlimit="10"/><polygon points="972.5 1125.5 972.5 1143.5 924.24 1143.5 919.67 1125.5 972.5 1125.5" fill="#764b5c" stroke="#764b5c" stroke-miterlimit="10"/><polygon points="1098.53 1116.3 1096.93 1112.98 1089.5 1116.58 1089.5 1107.5 1042.5 1107.5 1042.5 1144.5 1089.5 1144.5 1089.5 1120.67 1098.53 1116.3" fill="#929292" stroke="#929292" stroke-miterlimit="10"/><polygon points="1042.5 1107.5 1042.5 1116.58 1035.07 1112.98 1033.46 1116.3 1042.5 1120.67 1042.5 1144.5 1064.5 1144.5 1064.5 1107.5 1042.5 1107.5" fill="#837f7d" stroke="#837f7d" stroke-miterlimit="10"/><path d="M1088.71,1105h-47s11.43-12.57,20.43-13.67V1086h5v5.19C1079.19,1091.81,1088.71,1105,1088.71,1105Z" transform="translate(0.31 0.5)" fill="#929292" stroke="#929292" stroke-miterlimit="10"/><path d="M1064.19,1086v19h-22.43s11.43-12.57,20.43-13.67V1086Z" transform="translate(0.31 0.5)" fill="#837f7d" stroke="#837f7d" stroke-miterlimit="10"/></g><g id="af4253b5-b390-4721-8c4d-a72bd353fccf" data-name="Calque 6"><path d="M260,636.8h4.93a6.51,6.51,0,0,1,4.65,1.55,6,6,0,0,1,1.62,4.57q0,5.22-3.81,6V649a5.07,5.07,0,0,1,3.27,2,7.13,7.13,0,0,1,1.07,4.19,8.48,8.48,0,0,1-1.53,5.38,5.15,5.15,0,0,1-4.29,1.93H260Zm1.73,11.44H265a4.1,4.1,0,0,0,3.44-1.32,6.6,6.6,0,0,0,1-4,4.58,4.58,0,0,0-1.14-3.34,4.51,4.51,0,0,0-3.36-1.16h-3.2Zm0,1.59v11.09h3.95q4.26,0,4.26-5.77a5.68,5.68,0,0,0-1.25-3.94,4.48,4.48,0,0,0-3.5-1.38Z" transform="translate(0.31 0.5)" fill="#fff"/><path d="M285.67,662.5l-2.27-9.32h-6.24l-2.23,9.32h-1.79l6.18-25.7h1.78l6.33,25.7ZM283,651.44l-2.27-9.58c-.24-1.07-.42-2.09-.55-3.06a27,27,0,0,1-.49,3.06l-2.2,9.58Z" transform="translate(0.31 0.5)" fill="#fff"/><path d="M294.51,662.5h-1.72v-24h-5.12V636.8h12v1.65h-5.12Z" transform="translate(0.31 0.5)" fill="#fff"/><path d="M315.15,662.5h-1.73V649.86h-9V662.5h-1.72V636.8h1.72v11.41h9V636.8h1.73Z" transform="translate(0.31 0.5)" fill="#fff"/><path d="M322.49,651.27V662.5h-1.72V636.8h3.52q3.76,0,5.5,1.78a7.28,7.28,0,0,1,1.74,5.3,9.08,9.08,0,0,1-.95,4.4,5.8,5.8,0,0,1-3.18,2.58l5.1,11.64h-1.94l-4.8-11.23Zm0-1.58h2.41a4.54,4.54,0,0,0,3.61-1.45,6.34,6.34,0,0,0,1.26-4.28,5.74,5.74,0,0,0-1.29-4.19,5.61,5.61,0,0,0-4.07-1.28h-1.92Z" transform="translate(0.31 0.5)" fill="#fff"/><path d="M350,649.62c0,4.25-.63,7.52-1.91,9.8a6.14,6.14,0,0,1-11,0q-1.87-3.46-1.88-9.82,0-6.65,1.87-9.9a6.05,6.05,0,0,1,5.59-3.25,6,6,0,0,1,5.47,3.42C349.39,642.13,350,645.38,350,649.62Zm-13,0c0,3.82.47,6.7,1.43,8.65a4.46,4.46,0,0,0,8.37,0c.95-1.93,1.43-4.83,1.43-8.68s-.47-6.69-1.41-8.63a4.46,4.46,0,0,0-4.16-2.91,4.54,4.54,0,0,0-4.25,2.95Q337,644,337,649.62Z" transform="translate(0.31 0.5)" fill="#fff"/><path d="M368.74,649.62q0,6.38-1.9,9.8a6.14,6.14,0,0,1-11,0q-1.89-3.46-1.89-9.82c0-4.43.63-7.73,1.87-9.9a6.05,6.05,0,0,1,5.59-3.25,6,6,0,0,1,5.47,3.42C368.11,642.13,368.74,645.38,368.74,649.62Zm-13,0c0,3.82.47,6.7,1.43,8.65a4.46,4.46,0,0,0,8.37,0c1-1.93,1.43-4.83,1.43-8.68s-.47-6.69-1.41-8.63a4.46,4.46,0,0,0-4.16-2.91,4.55,4.55,0,0,0-4.25,2.95Q355.72,644,355.72,649.62Z" transform="translate(0.31 0.5)" fill="#fff"/><path d="M382,662.5l-6.84-23.4H375q.18,3.69.18,4.68V662.5h-1.65V636.8h2.55l5.76,19.65a27.68,27.68,0,0,1,1,4.43H383a35,35,0,0,1,1.09-4.39l5.72-19.69h2.63v25.7h-1.72V643.92c0-.73.06-2.32.18-4.78h-.14l-6.81,23.36Z" transform="translate(0.31 0.5)" fill="#fff"/><path d="M260,1314.8h4.93a6.51,6.51,0,0,1,4.65,1.55,6,6,0,0,1,1.62,4.57q0,5.22-3.81,6v.15a5.07,5.07,0,0,1,3.27,2,7.13,7.13,0,0,1,1.07,4.19,8.48,8.48,0,0,1-1.53,5.38,5.15,5.15,0,0,1-4.29,1.93H260Zm1.73,11.44H265a4.1,4.1,0,0,0,3.44-1.32,6.6,6.6,0,0,0,1-4,4.58,4.58,0,0,0-1.14-3.34,4.51,4.51,0,0,0-3.36-1.16h-3.2Zm0,1.59v11.09h3.95q4.26,0,4.26-5.77a5.68,5.68,0,0,0-1.25-3.94,4.48,4.48,0,0,0-3.5-1.38Z" transform="translate(0.31 0.5)" fill="#fff"/><path d="M285.26,1340.5H276v-25.7h9.31v1.65h-7.59v9.76h7.17v1.65h-7.17v11h7.59Z" transform="translate(0.31 0.5)" fill="#fff"/><path d="M302.54,1327.4q0,13.1-8.17,13.1H289.8v-25.7h4.68a6.71,6.71,0,0,1,6,3.21Q302.54,1321.22,302.54,1327.4Zm-1.81.11q0-5.43-1.6-8.28a5.11,5.11,0,0,0-4.73-2.85h-2.88v22.54h2.74a5.19,5.19,0,0,0,4.91-2.92Q300.73,1333.07,300.73,1327.51Z" transform="translate(0.31 0.5)" fill="#fff"/><path d="M309,1329.27v11.23h-1.72v-25.7h3.52c2.5,0,4.34.59,5.5,1.78a7.28,7.28,0,0,1,1.74,5.3,9.08,9.08,0,0,1-.95,4.4,5.84,5.84,0,0,1-3.18,2.58L319,1340.5h-1.93l-4.8-11.23Zm0-1.58h2.41a4.5,4.5,0,0,0,3.6-1.45,6.29,6.29,0,0,0,1.27-4.28,5.74,5.74,0,0,0-1.29-4.19,5.61,5.61,0,0,0-4.07-1.28H309Z" transform="translate(0.31 0.5)" fill="#fff"/><path d="M336.54,1327.62q0,6.38-1.91,9.8a6.14,6.14,0,0,1-11,0q-1.87-3.47-1.88-9.82,0-6.64,1.86-9.9a6.07,6.07,0,0,1,5.59-3.25,6,6,0,0,1,5.48,3.42C335.91,1320.13,336.54,1323.38,336.54,1327.62Zm-13,0q0,5.73,1.44,8.65a4.45,4.45,0,0,0,8.36,0c1-1.93,1.44-4.83,1.44-8.68s-.47-6.69-1.41-8.63a4.48,4.48,0,0,0-4.17-2.91,4.54,4.54,0,0,0-4.24,3C324,1321,323.51,1323.85,323.51,1327.62Z" transform="translate(0.31 0.5)" fill="#fff"/><path d="M355.26,1327.62q0,6.38-1.91,9.8a6.14,6.14,0,0,1-11,0q-1.87-3.47-1.88-9.82,0-6.64,1.87-9.9a6.05,6.05,0,0,1,5.59-3.25,6,6,0,0,1,5.47,3.42C354.63,1320.13,355.26,1323.38,355.26,1327.62Zm-13,0q0,5.73,1.44,8.65a4.45,4.45,0,0,0,8.36,0c1-1.93,1.44-4.83,1.44-8.68s-.47-6.69-1.41-8.63a4.47,4.47,0,0,0-4.16-2.91,4.54,4.54,0,0,0-4.25,3C342.71,1321,342.23,1323.85,342.23,1327.62Z" transform="translate(0.31 0.5)" fill="#fff"/><path d="M368.48,1340.5l-6.84-23.4h-.14q.18,3.69.18,4.68v18.72H360v-25.7h2.55l5.77,19.65a28.82,28.82,0,0,1,1,4.43h.14a35,35,0,0,1,1.09-4.39l5.71-19.69h2.64v25.7H377.2v-18.58c0-.73.06-2.32.17-4.78h-.14l-6.8,23.36Z" transform="translate(0.31 0.5)" fill="#fff"/><path d="M956,662.5V636.8h1.73v24.05H965v1.65Z" transform="translate(0.31 0.5)" fill="#fff"/><path d="M968.5,662.5V636.8h1.73v25.7Z" transform="translate(0.31 0.5)" fill="#fff"/><path d="M985.31,636.8h1.77L981,662.5h-1.92l-6-25.7h1.79L979,654.87c.33,1.38.55,2.4.65,3s.22,1.47.32,2.45c.09-.68.19-1.34.3-2s.21-1.21.31-1.66S982.26,649.62,985.31,636.8Z" transform="translate(0.31 0.5)" fill="#fff"/><path d="M989.9,662.5V636.8h1.72v25.7Z" transform="translate(0.31 0.5)" fill="#fff"/><path d="M1010.78,662.5h-2.2l-9.72-23h-.14c.14,1.59.21,3.12.21,4.6V662.5h-1.69V636.8h2.24l9.65,22.78h.1c-.09-1.92-.14-3.53-.14-4.81v-18h1.69Z" transform="translate(0.31 0.5)" fill="#fff"/><path d="M1024.86,649.54h5.62v12.17a16.68,16.68,0,0,1-6.1,1.14,7.39,7.39,0,0,1-6.52-3.51q-2.33-3.52-2.32-9.76t2.4-9.7a7.75,7.75,0,0,1,6.74-3.45,10,10,0,0,1,5.5,1.65l-.82,1.52a8.67,8.67,0,0,0-4.68-1.55,6.06,6.06,0,0,0-5.46,3c-1.23,2-1.85,4.84-1.85,8.61s.62,6.53,1.87,8.55a5.91,5.91,0,0,0,5.3,3,12.11,12.11,0,0,0,4.2-.65V651.2h-3.88Z" transform="translate(0.31 0.5)" fill="#fff"/><path d="M1043.79,651.27V662.5h-1.72V636.8h3.51q3.76,0,5.5,1.78a7.28,7.28,0,0,1,1.74,5.3,9.08,9.08,0,0,1-.94,4.4,5.86,5.86,0,0,1-3.19,2.58l5.1,11.64h-1.93l-4.8-11.23Zm0-1.58h2.41a4.5,4.5,0,0,0,3.6-1.45,6.29,6.29,0,0,0,1.27-4.28,5.7,5.7,0,0,0-1.3-4.19,5.58,5.58,0,0,0-4.06-1.28h-1.92Z" transform="translate(0.31 0.5)" fill="#fff"/><path d="M1071.32,649.62q0,6.38-1.91,9.8a6.14,6.14,0,0,1-11,0q-1.87-3.46-1.88-9.82,0-6.65,1.86-9.9a6.06,6.06,0,0,1,5.59-3.25,6,6,0,0,1,5.48,3.42C1070.69,642.13,1071.32,645.38,1071.32,649.62Zm-13,0q0,5.73,1.43,8.65t4.18,2.93a4.52,4.52,0,0,0,4.19-2.9c1-1.93,1.43-4.83,1.43-8.68s-.46-6.69-1.4-8.63a4.48,4.48,0,0,0-4.17-2.91,4.53,4.53,0,0,0-4.24,2.95Q1058.28,644,1058.29,649.62Z" transform="translate(0.31 0.5)" fill="#fff"/><path d="M1090,649.62q0,6.38-1.91,9.8a6.14,6.14,0,0,1-11,0q-1.87-3.46-1.88-9.82,0-6.65,1.86-9.9a6.06,6.06,0,0,1,5.59-3.25,6,6,0,0,1,5.48,3.42C1089.41,642.13,1090,645.38,1090,649.62Zm-13,0q0,5.73,1.43,8.65t4.18,2.93a4.52,4.52,0,0,0,4.19-2.9c1-1.93,1.43-4.83,1.43-8.68s-.46-6.69-1.4-8.63a4.48,4.48,0,0,0-4.17-2.91,4.54,4.54,0,0,0-4.24,2.95Q1077,644,1077,649.62Z" transform="translate(0.31 0.5)" fill="#fff"/><path d="M1103.26,662.5l-6.84-23.4h-.14c.12,2.46.17,4,.17,4.68V662.5h-1.65V636.8h2.55l5.77,19.65a28.82,28.82,0,0,1,1,4.43h.14a35,35,0,0,1,1.09-4.39l5.71-19.69h2.64v25.7H1112V643.92c0-.73,0-2.32.17-4.78H1112l-6.8,23.36Z" transform="translate(0.31 0.5)" fill="#fff"/><path d="M967.69,1340.5h-1.93l-6-12.81-2,2.61v10.2H956v-25.7h1.73v13.61q.88-1.7,7.59-13.61h1.88l-6.45,11.3Z" transform="translate(0.31 0.5)" fill="#fff"/><path d="M970.51,1340.5v-25.7h1.72v25.7Z" transform="translate(0.31 0.5)" fill="#fff"/><path d="M982.13,1340.5H980.4v-24h-5.11v-1.65h12v1.65h-5.11Z" transform="translate(0.31 0.5)" fill="#fff"/><path d="M997.61,1316.05q-2.9,0-4.61,3.07t-1.72,8.5a21.66,21.66,0,0,0,.79,6.15,9.09,9.09,0,0,0,2.27,4,4.83,4.83,0,0,0,3.43,1.41,7.67,7.67,0,0,0,3.45-.72v1.58a7.18,7.18,0,0,1-3.61.79,6.39,6.39,0,0,1-4.28-1.58,10.19,10.19,0,0,1-2.84-4.58,22.46,22.46,0,0,1-1-7.11q0-6.15,2.19-9.67a6.73,6.73,0,0,1,6-3.51,7.6,7.6,0,0,1,4.11,1.09L1001,1317A6.1,6.1,0,0,0,997.61,1316.05Z" transform="translate(0.31 0.5)" fill="#fff"/><path d="M1017.88,1340.5h-1.72v-12.64h-9v12.64h-1.72v-25.7h1.72v11.41h9V1314.8h1.72Z" transform="translate(0.31 0.5)" fill="#fff"/><path d="M1032.82,1340.5h-9.32v-25.7h9.32v1.65h-7.59v9.76h7.17v1.65h-7.17v11h7.59Z" transform="translate(0.31 0.5)" fill="#fff"/><path d="M1050.89,1340.5h-2.2l-9.72-23h-.14c.14,1.59.21,3.12.21,4.6v18.44h-1.68v-25.7h2.23l9.65,22.78h.1c-.09-1.92-.14-3.53-.14-4.81v-18h1.69Z" transform="translate(0.31 0.5)" fill="#fff"/></g></svg>